<svg width="32" height="28" viewBox="0 0 32 28" fill="none" xmlns="http://www.w3.org/2000/svg">
<rect x="5.6001" width="20.8" height="8" rx="1.80025" fill="#E6E6E6"/>
<path d="M3.8667 4.80074C3.8667 3.80649 4.6727 3.00049 5.66695 3.00049H26.3331C27.3274 3.00049 28.1334 3.80649 28.1334 4.80074V8.00049H3.8667V4.80074Z" fill="#EFEFEF"/>
<path d="M11.666 6.12855C11.666 6.05755 11.7236 6 11.7946 6H21.0708C21.1418 6 21.1993 6.05755 21.1993 6.12855V8.23334C21.1993 10.8659 19.0652 13 16.4327 13C13.8001 13 11.666 10.8659 11.666 8.23334V6.12855Z" fill="#EFEFEF"/>
<path d="M1.7169 11.1337V23.5332C1.7169 25.2361 3.09736 26.6166 4.80025 26.6166H27.1998C28.9026 26.6166 30.2831 25.2361 30.2831 23.5332V11.1337C30.2831 9.43086 28.9026 8.0504 27.1998 8.0504H22.9757C21.2728 8.0504 19.8923 9.43086 19.8923 11.1337V11.9777C19.8923 12.2633 19.6608 12.4948 19.3752 12.4948H12.9406C12.655 12.4948 12.4234 12.2633 12.4234 11.9777V11.1337C12.4234 9.43086 11.043 8.0504 9.3401 8.0504H4.80025C3.09736 8.0504 1.7169 9.43086 1.7169 11.1337Z" stroke="#E2E2E2" stroke-width="2.5662"/>
</svg>
